<svg width="38" height="36" viewBox="0 0 38 36" fill="none" xmlns="http://www.w3.org/2000/svg">
<rect x="3.5" y="2.5" width="31" height="31" rx="4.5" stroke="#46A358" stroke-opacity="0.2"/>
<path d="M14.3333 11.6667C14.3333 12.6 13.6 13.3333 12.6667 13.3333C11.7333 13.3333 11 12.6 11 11.6667C11 10.7333 11.7333 10 12.6667 10C13.6 10 14.3333 10.7333 14.3333 11.6667ZM14.3333 14.6667H11V25.3333H14.3333V14.6667ZM19.6667 14.6667H16.3333V25.3333H19.6667V19.7333C19.6667 16.6 23.6667 16.3333 23.6667 19.7333V25.3333H27V18.6C27 13.3333 21.0667 13.5333 19.6667 16.1333V14.6667Z" fill="#46A358" fill-opacity="0.6"/>
</svg>
