<svg width="38" height="36" viewBox="0 0 38 36" fill="none" xmlns="http://www.w3.org/2000/svg">
<rect x="3.5" y="2.5" width="31" height="31" rx="4.5" stroke="#46A358" stroke-opacity="0.2"/>
<path d="M19 11.4667C21.1333 11.4667 21.4 11.4667 22.2667 11.5333C24.4667 11.6 25.4667 12.6667 25.5333 14.8C25.6 15.6667 25.6 15.8667 25.6 18C25.6 20.1333 25.6 20.4 25.5333 21.2C25.4667 23.3333 24.4 24.4 22.2667 24.4667C21.4 24.5333 21.2 24.5333 19 24.5333C16.8667 24.5333 16.6 24.5333 15.8 24.4667C13.6 24.4 12.6 23.3333 12.5333 21.2C12.4667 20.3333 12.4667 20.1333 12.4667 18C12.4667 15.8667 12.4667 15.6 12.5333 14.8C12.6 12.6667 13.6667 11.6 15.8 11.5333C16.6 11.4667 16.8667 11.4667 19 11.4667ZM19 10C16.8 10 16.5333 10 15.7333 10.0667C12.8 10.2 11.2 11.8 11.0667 14.7333C11 15.5333 11 15.8 11 18C11 20.2 11 20.4667 11.0667 21.2667C11.2 24.2 12.8 25.8 15.7333 25.9333C16.5333 26 16.8 26 19 26C21.2 26 21.4667 26 22.2667 25.9333C25.2 25.8 26.8 24.2 26.9333 21.2667C27 20.4667 27 20.2 27 18C27 15.8 27 15.5333 26.9333 14.7333C26.8 11.8 25.2 10.2 22.2667 10.0667C21.4667 10 21.2 10 19 10ZM19 13.8667C16.7333 13.8667 14.8667 15.7333 14.8667 18C14.8667 20.2667 16.7333 22.1333 19 22.1333C21.2667 22.1333 23.1333 20.2667 23.1333 18C23.1333 15.7333 21.2667 13.8667 19 13.8667ZM19 20.6667C17.5333 20.6667 16.3333 19.4667 16.3333 18C16.3333 16.5333 17.5333 15.3333 19 15.3333C20.4667 15.3333 21.6667 16.5333 21.6667 18C21.6667 19.4667 20.4667 20.6667 19 20.6667ZM23.2667 12.8C22.7333 12.8 22.3333 13.2 22.3333 13.7333C22.3333 14.2667 22.7333 14.6667 23.2667 14.6667C23.8 14.6667 24.2 14.2667 24.2 13.7333C24.2 13.2 23.8 12.8 23.2667 12.8Z" fill="#46A358" fill-opacity="0.6"/>
</svg>
