<svg width="38" height="36" viewBox="0 0 38 36" fill="none" xmlns="http://www.w3.org/2000/svg">
<rect x="3.5" y="2.5" width="31" height="31" rx="4.5" stroke="#46A358" stroke-opacity="0.2"/>
<path d="M16.0319 24.0036C22.0699 24.0036 25.3718 19.0012 25.3718 14.6636C25.3718 14.5214 25.3689 14.38 25.3624 14.2392C26.0033 13.7759 26.5605 13.1976 27 12.5395C26.4118 12.8008 25.7789 12.9768 25.1149 13.0562C25.7926 12.6498 26.313 12.0067 26.5585 11.2402C25.9241 11.6164 25.2217 11.8897 24.4742 12.0371C23.8749 11.3991 23.0218 11 22.0779 11C20.2648 11 18.7946 12.4702 18.7946 14.2823C18.7946 14.54 18.8236 14.7904 18.8796 15.0308C16.1516 14.8938 13.7324 13.5874 12.1135 11.6013C11.8313 12.0862 11.6688 12.65 11.6688 13.2511C11.6688 14.3899 12.2484 15.3953 13.1297 15.9836C12.5912 15.9671 12.0853 15.8189 11.6429 15.5729C11.6422 15.5866 11.6422 15.6004 11.6422 15.6148C11.6422 17.2047 12.7739 18.532 14.2758 18.8329C14.0001 18.908 13.71 18.9484 13.4105 18.9484C13.199 18.9484 12.9934 18.9273 12.7934 18.8893C13.2112 20.1933 14.4232 21.1425 15.8601 21.1693C14.7364 22.0499 13.3209 22.5745 11.783 22.5745C11.5183 22.5745 11.257 22.5594 11 22.529C12.4527 23.46 14.1777 24.0036 16.0319 24.0036Z" fill="#46A358" fill-opacity="0.6"/>
</svg>
