<svg width="38" height="36" viewBox="0 0 38 36" fill="none" xmlns="http://www.w3.org/2000/svg">
<rect x="3.5" y="2.5" width="31" height="31" rx="4.5" stroke="#46A358" stroke-opacity="0.2"/>
<path fill-rule="evenodd" clip-rule="evenodd" d="M25.1653 15.4299L25.168 15.4306C25.168 15.4306 25.1676 15.4305 25.1667 15.4303C25.1663 15.4302 25.1658 15.4301 25.1653 15.4299ZM14.3244 15.3569C16.9176 15.1957 21.7483 15.1957 24.3415 15.3569L24.3422 15.3644C24.4047 15.9972 24.4299 16.8414 24.4299 18.0192C24.4299 19.1824 24.4053 20.0269 24.3441 20.665C21.6962 20.7703 16.9713 20.7703 14.3228 20.665C14.261 20.0332 14.236 19.1914 14.236 18.0192C14.236 16.8414 14.2612 15.9972 14.3237 15.3644L14.3244 15.3569ZM25.2422 20.6111C25.2422 20.6111 25.2405 20.6115 25.237 20.6122L25.2422 20.6111ZM13.4979 20.6077L13.5006 20.6084C13.4988 20.6079 13.4979 20.6077 13.4979 20.6077ZM10 18.0192C10 22.8412 10.3889 24.63 13.4221 24.8633C16.222 25.0189 22.4439 25.0189 25.2438 24.8633C28.277 24.7078 28.6659 22.8412 28.6659 18.0192C28.6659 13.1971 28.277 11.4083 25.2438 11.175C22.4439 10.9417 16.222 10.9417 13.4221 11.175C10.3889 11.4083 10 13.1971 10 18.0192ZM13.4979 15.4306C13.4979 15.4306 13.4988 15.4304 13.5007 15.4299L13.4979 15.4306ZM19.7823 19.7389C18.5039 20.3781 16.9997 19.4484 16.9997 18.0192C16.9997 16.5899 18.5039 15.6602 19.7823 16.2994C21.1994 17.008 21.1994 19.0303 19.7823 19.7389Z" fill="#46A358" fill-opacity="0.6"/>
</svg>
